name Walk2.mot
datacolumns 19
datarows 10
range 1.64400000 1.65300000
endheader

                time	   L_ground_force_vx	   L_ground_force_vy	   L_ground_force_vz	   L_ground_force_px	   L_ground_force_py	   L_ground_force_pz	   R_ground_force_vx	   R_ground_force_vy	   R_ground_force_vz	   R_ground_force_px	   R_ground_force_py	   R_ground_force_pz	   L_ground_torque_x	   L_ground_torque_y	   L_ground_torque_z	   R_ground_torque_x	   R_ground_torque_y	   R_ground_torque_z	
          1.64400000	         30.50258400	        921.18218101	         84.25106068	         -0.28529210	          0.00000000	         -0.12999701	          0.00000000	          0.00000000	          0.00000000	          0.00000000	          0.00000000	          0.00000000	          0.00000000	         -2.09566130	          0.00000000	          0.00000000	          0.00000000	          0.00000000	
          1.64500000	         30.98531416	        923.08955604	         84.50951433	         -0.28497868	          0.00000000	         -0.13008648	          0.00000000	          0.00000000	          0.00000000	          0.00000000	          0.00000000	          0.00000000	          0.00000000	         -2.10196922	          0.00000000	          0.00000000	          0.00000000	          0.00000000	
          1.64600000	         31.50829545	        925.15012246	         84.75376275	         -0.28465076	          0.00000000	         -0.13017408	          0.00000000	          0.00000000	          0.00000000	          0.00000000	          0.00000000	          0.00000000	          0.00000000	         -2.11859023	          0.00000000	          0.00000000	          0.00000000	          0.00000000	
          1.64700000	         32.03018626	        927.35429932	         84.97934651	         -0.28431896	          0.00000000	         -0.13024481	          0.00000000	          0.00000000	          0.00000000	          0.00000000	          0.00000000	          0.00000000	          0.00000000	         -2.13612566	          0.00000000	          0.00000000	          0.00000000	          0.00000000	
          1.64800000	         32.50121368	        929.66336439	         85.19365659	         -0.28399311	          0.00000000	         -0.13030468	          0.00000000	          0.00000000	          0.00000000	          0.00000000	          0.00000000	          0.00000000	          0.00000000	         -2.14610347	          0.00000000	          0.00000000	          0.00000000	          0.00000000	
          1.64900000	         32.91379235	        932.02064551	         85.40868798	         -0.28367796	          0.00000000	         -0.13037463	          0.00000000	          0.00000000	          0.00000000	          0.00000000	          0.00000000	          0.00000000	          0.00000000	         -2.15107688	          0.00000000	          0.00000000	          0.00000000	          0.00000000	
          1.65000000	         33.30399129	        934.37193912	         85.63761798	         -0.28337529	          0.00000000	         -0.13045898	          0.00000000	          0.00000000	          0.00000000	          0.00000000	          0.00000000	          0.00000000	          0.00000000	         -2.16211027	          0.00000000	          0.00000000	          0.00000000	          0.00000000	
          1.65100000	         33.72137803	        936.69202532	         85.88621930	         -0.28308460	          0.00000000	         -0.13053976	          0.00000000	          0.00000000	          0.00000000	          0.00000000	          0.00000000	          0.00000000	          0.00000000	         -2.19007777	          0.00000000	          0.00000000	          0.00000000	          0.00000000	
          1.65200000	         34.19617905	        938.99138760	         86.14382098	         -0.28280383	          0.00000000	         -0.13060456	          0.00000000	          0.00000000	          0.00000000	          0.00000000	          0.00000000	          0.00000000	          0.00000000	         -2.23459516	          0.00000000	          0.00000000	          0.00000000	          0.00000000	
          1.65300000	         34.72647170	        941.28520348	         86.39826385	         -0.28252921	          0.00000000	         -0.13065970	          0.00000000	          0.00000000	          0.00000000	          0.00000000	          0.00000000	          0.00000000	          0.00000000	         -2.28325993	          0.00000000	          0.00000000	          0.00000000	          0.00000000	
